<mxfile host="app.diagrams.net" modified="2023-12-02T15:17:53.238Z" agent="Mozilla/5.0 (Windows NT 10.0; Win64; x64) AppleWebKit/537.36 (KHTML, like Gecko) Chrome/119.0.0.0 Safari/537.36" etag="wCCfbbPb6oxfMHwSRVlM" version="22.1.5" type="device">
  <diagram name="Pagina-1" id="CdhCDBlfEBfA4CkSd_Pl">
    <mxGraphModel dx="527" dy="581" grid="1" gridSize="10" guides="1" tooltips="1" connect="1" arrows="1" fold="1" page="1" pageScale="1" pageWidth="827" pageHeight="1169" math="0" shadow="0">
      <root>
        <mxCell id="0" />
        <mxCell id="1" parent="0" />
        <mxCell id="7RthDgZlHl017tQfueaz-1" value="Stampante" style="swimlane;fontStyle=1;align=center;verticalAlign=top;childLayout=stackLayout;horizontal=1;startSize=26;horizontalStack=0;resizeParent=1;resizeParentMax=0;resizeLast=0;collapsible=1;marginBottom=0;whiteSpace=wrap;html=1;" vertex="1" parent="1">
          <mxGeometry x="330" y="130" width="240" height="180" as="geometry" />
        </mxCell>
        <mxCell id="7RthDgZlHl017tQfueaz-2" value="-&amp;nbsp; C:int&lt;br&gt;-&amp;nbsp; M:int&lt;br&gt;-&amp;nbsp; Y:int&lt;br&gt;-&amp;nbsp; B:int" style="text;strokeColor=none;fillColor=none;align=left;verticalAlign=top;spacingLeft=4;spacingRight=4;overflow=hidden;rotatable=0;points=[[0,0.5],[1,0.5]];portConstraint=eastwest;whiteSpace=wrap;html=1;" vertex="1" parent="7RthDgZlHl017tQfueaz-1">
          <mxGeometry y="26" width="240" height="64" as="geometry" />
        </mxCell>
        <mxCell id="7RthDgZlHl017tQfueaz-3" value="" style="line;strokeWidth=1;fillColor=none;align=left;verticalAlign=middle;spacingTop=-1;spacingLeft=3;spacingRight=3;rotatable=0;labelPosition=right;points=[];portConstraint=eastwest;strokeColor=inherit;" vertex="1" parent="7RthDgZlHl017tQfueaz-1">
          <mxGeometry y="90" width="240" height="8" as="geometry" />
        </mxCell>
        <mxCell id="7RthDgZlHl017tQfueaz-4" value="+ Stampa(Pagina p):bool&lt;br&gt;+ StatoInchiostro(Colore c):int&lt;br&gt;+ StatoCarta():int&lt;br&gt;+ SostituisciColore(Colore c):void&lt;br&gt;+ AggiungiCarta(int qta):void" style="text;strokeColor=none;fillColor=none;align=left;verticalAlign=top;spacingLeft=4;spacingRight=4;overflow=hidden;rotatable=0;points=[[0,0.5],[1,0.5]];portConstraint=eastwest;whiteSpace=wrap;html=1;" vertex="1" parent="7RthDgZlHl017tQfueaz-1">
          <mxGeometry y="98" width="240" height="82" as="geometry" />
        </mxCell>
        <mxCell id="7RthDgZlHl017tQfueaz-5" value="Pagina" style="swimlane;fontStyle=1;align=center;verticalAlign=top;childLayout=stackLayout;horizontal=1;startSize=26;horizontalStack=0;resizeParent=1;resizeParentMax=0;resizeLast=0;collapsible=1;marginBottom=0;whiteSpace=wrap;html=1;" vertex="1" parent="1">
          <mxGeometry x="340" y="340" width="220" height="140" as="geometry" />
        </mxCell>
        <mxCell id="7RthDgZlHl017tQfueaz-6" value="-&amp;nbsp; C:int&lt;br style=&quot;border-color: var(--border-color);&quot;&gt;-&amp;nbsp; M:int&lt;br style=&quot;border-color: var(--border-color);&quot;&gt;-&amp;nbsp; Y:int&lt;br style=&quot;border-color: var(--border-color);&quot;&gt;-&amp;nbsp; B:int" style="text;strokeColor=none;fillColor=none;align=left;verticalAlign=top;spacingLeft=4;spacingRight=4;overflow=hidden;rotatable=0;points=[[0,0.5],[1,0.5]];portConstraint=eastwest;whiteSpace=wrap;html=1;" vertex="1" parent="7RthDgZlHl017tQfueaz-5">
          <mxGeometry y="26" width="220" height="64" as="geometry" />
        </mxCell>
        <mxCell id="7RthDgZlHl017tQfueaz-7" value="" style="line;strokeWidth=1;fillColor=none;align=left;verticalAlign=middle;spacingTop=-1;spacingLeft=3;spacingRight=3;rotatable=0;labelPosition=right;points=[];portConstraint=eastwest;strokeColor=inherit;" vertex="1" parent="7RthDgZlHl017tQfueaz-5">
          <mxGeometry y="90" width="220" height="8" as="geometry" />
        </mxCell>
        <mxCell id="7RthDgZlHl017tQfueaz-8" value="+ Pagina(int,c, int m, int y, int b)&lt;br&gt;+ Pagina()" style="text;strokeColor=none;fillColor=none;align=left;verticalAlign=top;spacingLeft=4;spacingRight=4;overflow=hidden;rotatable=0;points=[[0,0.5],[1,0.5]];portConstraint=eastwest;whiteSpace=wrap;html=1;" vertex="1" parent="7RthDgZlHl017tQfueaz-5">
          <mxGeometry y="98" width="220" height="42" as="geometry" />
        </mxCell>
      </root>
    </mxGraphModel>
  </diagram>
</mxfile>
